inDegrees=yes
name=ik_Shooting_orientations
DataType=double
version=3
OpenSimVersion=4.3-2021-08-27-4bc7ad9
endheader
time	pelvis_tilt	pelvis_list	pelvis_rotation	pelvis_tx	pelvis_ty	pelvis_tz	hip_flexion_r	hip_adduction_r	hip_rotation_r	knee_angle_r	knee_angle_r_beta	ankle_angle_r	subtalar_angle_r	mtp_angle_r	hip_flexion_l	hip_adduction_l	hip_rotation_l	knee_angle_l	knee_angle_l_beta	ankle_angle_l	subtalar_angle_l	mtp_angle_l	lumbar_extension	lumbar_bending	lumbar_rotation	arm_flex_r	arm_add_r	arm_rot_r	elbow_flex_r	pro_sup_r	wrist_flex_r	wrist_dev_r	arm_flex_l	arm_add_l	arm_rot_l	elbow_flex_l	pro_sup_l	wrist_flex_l	wrist_dev_l
11.39	0.5461405939660562	-1.755321800132377	151.9309026166584	0	0.9399999999999999	0	41.98206289823401	-9.999188565556889	0	57.01975263858908	0.9951824222161036	-5.000360913606654	0	0	41.98206289823401	-9.999188565556889	0	57.01975263858908	0.9951824222161036	-5.000360913606654	0	0	6.546529149474868	-6.554253074347311	-4.911294906137952	0	-11.09697317547626	0	73.02175094474519	45.06961926879355	0	0	46.18493763946613	-20.72288618708799	-23.1247955461877	0.1124022829483107	45.06961926879355	0	0
11.4	0.5457896495000639	-1.744458310618949	151.9262866954165	0	0.9399999999999999	0	41.9828983870348	-9.999189351425954	0	57.02039924459971	0.9951937076199524	-5.000360457213785	0	0	41.9828983870348	-9.999189351425954	0	57.02039924459971	0.9951937076199524	-5.000360457213785	0	0	6.553934861048356	-6.55227149588168	-4.901114176125415	0	-11.09752525336953	0	73.02229814790697	45.06956595904619	0	0	45.9323597853578	-20.48890330221754	-23.50481421948049	0.1026397503327469	45.06956595904619	0	0
11.41	0.5498409409787899	-1.746615559537113	151.9180200074588	0	0.9399999999999999	0	41.98367123835046	-9.999190077797781	0	57.02099747371663	0.9952041486877239	-5.00036003550438	0	0	41.98367123835046	-9.999190077797781	0	57.02099747371663	0.9952041486877239	-5.00036003550438	0	0	6.573149800809269	-6.568287290173822	-4.880372003208818	0	-11.09803604762046	0	73.02280432714186	45.06951667455834	0	0	45.70986620538942	-20.23581487905022	-23.82863725087506	0.0921715322449745	45.06951667455834	0	0
11.42	0.5597035764572532	-1.742434689252726	151.9199825474239	0	0.9399999999999999	0	41.98459638910466	-9.999190947317222	0	57.021713227155	0.995216640941856	-5.000359530769645	0	0	41.98459638910466	-9.999190947317222	0	57.021713227155	0.995216640941856	-5.000359530769645	0	0	6.58606815379276	-6.567102029122117	-4.868968624490878	0	-11.09864733571318	0	73.02341025475054	45.06945767276174	0	0	45.42734322323916	-19.98937764958373	-23.90460545268116	0.0873866424507028	45.06945767276174	0	0
11.43	0.5582396056064773	-1.750103453999474	151.9190442007794	0	0.9399999999999999	0	41.98510230902949	-9.999191421740175	0	57.02210514385378	0.9952234811786432	-5.000359255546044	0	0	41.98510230902949	-9.999191421740175	0	57.02210514385378	0.9952234811786432	-5.000359255546044	0	0	6.600526138888529	-6.58871153928045	-4.853100917049378	0	-11.0989819569081	0	73.02374160810487	45.06942546482444	0	0	45.37070560472917	-19.89262637888386	-24.13236004712303	0.07103468354659694	45.06942546482444	0	0
11.44	0.513849124861772	-1.748443659099828	151.9217884563082	0	0.9399999999999999	0	41.98533648924823	-9.999191640710308	0	57.02228686784638	0.9952266528606439	-5.000359128610169	0	0	41.98533648924823	-9.999191640710308	0	57.02228686784638	0.9952266528606439	-5.000359128610169	0	0	6.582933497120256	-6.627468721614918	-4.836859882191422	0	-11.09913704779438	0	73.02389498554111	45.06941059025073	0	0	45.26072148331422	-19.83373972042061	-24.31166988508362	0.06207172061561659	45.06941059025073	0	0
11.45	0.5013376585094064	-1.750869786250117	151.9180729674538	0	0.9399999999999999	0	41.98557455002155	-9.999191863093531	0	57.02247173183126	0.9952298793458485	-5.000358999723529	0	0	41.98557455002155	-9.999191863093531	0	57.02247173183126	0.9952298793458485	-5.000358999723529	0	0	6.571648885327028	-6.646814646279337	-4.827707054776685	0	-11.09929479110525	0	73.02405090479905	45.06939548104015	0	0	45.16365016323375	-19.80224514833012	-24.51875299942638	0.05611890614008323	45.06939548104015	0	0
11.46	0.5511969728068349	-1.742297961810675	151.9270010803179	0	0.9399999999999999	0	41.98628707629652	-9.999192531181453	0	57.02302343788362	0.9952395084329653	-5.000358612231698	0	0	41.98628707629652	-9.999192531181453	0	57.02302343788362	0.9952395084329653	-5.000358612231698	0	0	6.588304368464497	-6.596799319283751	-4.888803885187486	0	-11.09976595983883	0	73.02451757537558	45.06935012033483	0	0	45.03684568625643	-19.80894690189053	-24.79052081953922	0.05073073793957055	45.06935012033483	0	0
11.47	0.5434634108240087	-1.738250342363669	151.9219782838497	0	0.9399999999999999	0	41.98700110347005	-9.999193200585868	0	57.02357612808048	0.9952491546966441	-5.000358224040955	0	0	41.98700110347005	-9.999193200585868	0	57.02357612808048	0.9952491546966441	-5.000358224040955	0	0	6.587337489146031	-6.593662939480131	-4.906871766832968	0	-11.10023804975366	0	73.02498522893696	45.06930466597186	0	0	44.80067960406839	-19.7751490032464	-25.05905816117137	0.047082322424082	45.06930466597186	0	0
11.48	0.5220440813525252	-1.730733149475332	151.9333144219901	0	0.9399999999999999	0	41.9871737210056	-9.999193361327535	0	57.02371036891623	0.9952514976412185	-5.000358130969158	0	0	41.9871737210056	-9.999193361327535	0	57.02371036891623	0.9952514976412185	-5.000358130969158	0	0	6.54623771074872	-6.610780689084877	-4.904385766761717	0	-11.10035257088156	0	73.02509828624557	45.0692937368208	0	0	44.59683134033155	-19.72622160145268	-25.0662616988653	0.04378137984388256	45.0692937368208	0	0
11.49	0.5099999111522576	-1.726809653550962	151.9299615469956	0	0.9399999999999999	0	41.98736081545049	-9.999193535603681	0	57.02385582392426	0.9952540363100223	-5.000358030056706	0	0	41.98736081545049	-9.999193535603681	0	57.02385582392426	0.9952540363100223	-5.000358030056706	0	0	6.529696740371962	-6.618020516823657	-4.89099860947158	0	-11.1004766717035	0	73.02522082526902	45.06928188796859	0	0	44.38971624295357	-19.70853684654696	-25.08903191649513	0.04071917145849183	45.06928188796859	0	0
11.5	0.5289796641754454	-1.743542100067282	151.9183013597019	0	0.9399999999999999	0	41.98808917405056	-9.999194217354706	0	57.02441999390308	0.9952638829336935	-5.000357634906001	0	0	41.98808917405056	-9.999194217354706	0	57.02441999390308	0.9952638829336935	-5.000357634906001	0	0	6.58252413321296	-6.613354687080891	-4.884988349468889	0	-11.10095853135638	0	73.02569786625278	45.06923557766297	0	0	44.08962494098114	-19.63113761069428	-25.61474502503852	0.03740519782207866	45.06923557766297	0	0
